<?xml version="1.0" encoding="UTF-8" standalone="no"?>
<!-- Generator: Adobe Illustrator 16.0.0, SVG Export Plug-In . SVG Version: 6.00 Build 0)  -->

<svg
   version="1.1"
   id="Capa_1"
   x="0px"
   y="0px"
   width="494.926px"
   height="494.925px"
   viewBox="0 0 494.926 494.925"
   style="enable-background:new 0 0 494.926 494.925;"
   xml:space="preserve"
   sodipodi:docname="worker-running-with-suitcase-svgrepo-com.svg"
   inkscape:version="1.1.1 (3bf5ae0d25, 2021-09-20, custom)"
   xmlns:inkscape="http://www.inkscape.org/namespaces/inkscape"
   xmlns:sodipodi="http://sodipodi.sourceforge.net/DTD/sodipodi-0.dtd"
   xmlns="http://www.w3.org/2000/svg"
   xmlns:svg="http://www.w3.org/2000/svg"><defs
   id="defs39" /><sodipodi:namedview
   id="namedview37"
   pagecolor="#ffffff"
   bordercolor="#666666"
   borderopacity="1.0"
   inkscape:pageshadow="2"
   inkscape:pageopacity="0.0"
   inkscape:pagecheckerboard="0"
   showgrid="false"
   inkscape:zoom="1.4689095"
   inkscape:cx="247.46249"
   inkscape:cy="247.46249"
   inkscape:window-width="3440"
   inkscape:window-height="1380"
   inkscape:window-x="0"
   inkscape:window-y="32"
   inkscape:window-maximized="1"
   inkscape:current-layer="Capa_1" />
<g
   id="g4"
   style="fill:#c3dafe;fill-opacity:1">
	<path
   d="M283.773,69.312c0-27.229,22.073-49.304,49.303-49.304c27.229,0,49.304,22.074,49.304,49.304   c0,27.229-22.074,49.303-49.304,49.303S283.773,96.541,283.773,69.312z M403.152,232.858l91.773-78.847l-23.817-27.725   l-69.176,59.43l-51.286-39.899l-87.272-34.003H155.128l-51.51,116.513l-13.736-5.73l-5.551,13.306l-2.059,4.934l-2.058,4.935   l-16.035-6.69l-37.044,88.805l86.302,36.004l7.024,2.929l1.492-3.576l35.553-85.229l-15.622-6.517l2.057-4.935l2.06-4.935   l5.548-13.306l-14.193-5.92l41.576-94.038h71.212l-49.11,135.729l-11.979,74.054l-21.74,1.651l-9.438,22.626l-4.116,9.866   l-9.868-4.114L89.941,365.67l-8.796,0.665l3.689,48.597l145.972-11.077l14.819-88.381l3.574,2.514l57.674,42.648l5.662,114.282   l48.675-2.409l-6.809-137.334l-70.611-52.223l50.408-103.404L403.152,232.858z M37.045,227.765L0,316.568l14.8,6.174l37.045-88.802   L37.045,227.765z M155.35,360.704l29.704-71.201l-15.212-6.345l-32.936,78.947l-4.11,9.856l15.211,6.346L155.35,360.704z"
   id="path2"
   style="fill:#c3dafe;fill-opacity:1" />
</g>
<g
   id="g6">
</g>
<g
   id="g8">
</g>
<g
   id="g10">
</g>
<g
   id="g12">
</g>
<g
   id="g14">
</g>
<g
   id="g16">
</g>
<g
   id="g18">
</g>
<g
   id="g20">
</g>
<g
   id="g22">
</g>
<g
   id="g24">
</g>
<g
   id="g26">
</g>
<g
   id="g28">
</g>
<g
   id="g30">
</g>
<g
   id="g32">
</g>
<g
   id="g34">
</g>
</svg>
